<svg width="6" height="10" viewBox="0 0 6 10" fill="none" xmlns="http://www.w3.org/2000/svg">
<path fill-rule="evenodd" clip-rule="evenodd" d="M0.120514 0.601684C0.158619 0.569452 0.203886 0.543879 0.253722 0.52643C0.303558 0.508982 0.356985 0.5 0.410941 0.5C0.464898 0.5 0.518325 0.508982 0.568161 0.52643C0.617997 0.543879 0.663264 0.569452 0.701369 0.601684L5.62387 4.75504C5.66207 4.78719 5.69238 4.82539 5.71306 4.86744C5.73374 4.90949 5.74438 4.95456 5.74438 5.00009C5.74438 5.04562 5.73374 5.09069 5.71306 5.13274C5.69238 5.17479 5.66207 5.21299 5.62387 5.24514L0.701369 9.3985C0.624343 9.46349 0.519873 9.5 0.410941 9.5C0.30201 9.5 0.19754 9.46349 0.120514 9.3985C0.0434877 9.33351 0.000214772 9.24536 0.000214772 9.15345C0.000214772 9.06154 0.0434877 8.97339 0.120514 8.9084L4.75341 5.00009L0.120514 1.09178C0.0823126 1.05963 0.052004 1.02144 0.0313242 0.979386C0.0106444 0.937337 0 0.892258 0 0.846732C0 0.801206 0.0106444 0.756128 0.0313242 0.714078C0.052004 0.672029 0.0823126 0.633835 0.120514 0.601684V0.601684Z" fill="#1D6F42"/>
</svg>
