<svg width="24" height="24" viewBox="0 0 24 24" fill="none" xmlns="http://www.w3.org/2000/svg">
<path d="M16.3401 1.99994C19.7301 1.99994 22.0001 4.37994 22.0001 7.91994V16.0909C22.0001 19.6199 19.7301 21.9999 16.3401 21.9999H7.6701C4.2801 21.9999 2.0001 19.6199 2.0001 16.0909V7.91994C2.0001 4.37994 4.2801 1.99994 7.6701 1.99994H16.3401ZM16.1801 8.99994C15.8401 8.65994 15.2801 8.65994 14.9401 8.99994L10.8101 13.1299L9.0601 11.3799C8.7201 11.0399 8.1601 11.0399 7.8201 11.3799C7.4801 11.7199 7.4801 12.2699 7.8201 12.6199L10.2001 14.9899C10.3701 15.1599 10.5901 15.2399 10.8101 15.2399C11.0401 15.2399 11.2601 15.1599 11.4301 14.9899L16.1801 10.2399C16.5201 9.89994 16.5201 9.34994 16.1801 8.99994Z" fill="#EFF8ED"/>
</svg>
