<svg width="25" height="23" viewBox="0 0 25 23" fill="none" xmlns="http://www.w3.org/2000/svg">
<path d="M12.1914 22.1525C8.9592 22.1492 5.86037 20.9812 3.57482 18.9047C1.28927 16.8282 0.00364403 14.0128 0 11.0762C0.00364403 8.13965 1.28927 5.32431 3.57482 3.24782C5.86037 1.17134 8.9592 0.0033107 12.1914 0C15.4237 0.0033107 18.5225 1.17134 20.8081 3.24782C23.0936 5.32431 24.3792 8.13965 24.3829 11.0762C24.3792 14.0128 23.0936 16.8282 20.8081 18.9047C18.5225 20.9812 15.4237 22.1492 12.1914 22.1525ZM12.1914 0.963139C9.23976 0.965622 6.4097 2.03181 4.32222 3.92776C2.23473 5.82371 1.06033 8.39455 1.05669 11.0762C1.06033 13.7574 2.23426 16.3278 4.321 18.2236C6.40774 20.1195 9.23691 21.1861 12.188 21.1894C15.1391 21.1861 17.9683 20.1195 20.055 18.2236C22.1417 16.3278 23.3157 13.7574 23.3193 11.0762C23.3157 8.39563 22.1422 5.82574 20.0562 3.92997C17.9702 2.0342 15.1419 0.967277 12.1914 0.963139Z" fill="#6A1AB7"/>
</svg>
