<svg width="31" height="33" viewBox="0 0 31 33" fill="none" xmlns="http://www.w3.org/2000/svg">
<path d="M15.6116 32.2698C11.6188 32.2651 7.79085 30.6028 4.96753 27.6475C2.1442 24.6923 0.556076 20.6854 0.551575 16.5061C0.556076 12.3267 2.1442 8.31995 4.96753 5.3647C7.79085 2.40945 11.6188 0.747113 15.6116 0.742401C19.6044 0.747113 23.4323 2.40945 26.2557 5.3647C29.079 8.31995 30.6671 12.3267 30.6716 16.5061C30.6671 20.6854 29.079 24.6923 26.2557 27.6475C23.4323 30.6028 19.6044 32.2651 15.6116 32.2698ZM15.6116 2.11314C11.9654 2.11667 8.46943 3.63407 5.89078 6.33238C3.31213 9.03069 1.86139 12.6895 1.85689 16.5061C1.86139 20.3219 3.31154 23.9801 5.88927 26.6783C8.46701 29.3765 11.9619 30.8944 15.6073 30.8991C19.2528 30.8944 22.7477 29.3765 25.3254 26.6783C27.9031 23.9801 29.3533 20.3219 29.3578 16.5061C29.3533 12.6911 27.9037 9.03359 25.3269 6.33553C22.7501 3.63748 19.2563 2.11903 15.6116 2.11314Z" fill="#6A1AB7"/>
</svg>
