<svg width="320" height="200" viewBox="0 0 320 200" fill="none" xmlns="http://www.w3.org/2000/svg">
<path d="M159.211 200C157.257 199.999 155.306 199.855 153.378 199.568C135.681 196.942 125.244 184.103 114.191 170.51C106.423 160.959 98.3914 151.081 87.5916 145.025C77.2218 139.211 64.7818 137.241 52.749 135.324C46.1952 134.287 39.419 133.213 32.9897 131.534C13.5773 126.462 -4.21734 111.043 0.884621 94.9819C4.80254 82.6509 20.0858 76.7463 28.8455 74.3242C32.3411 73.3574 35.9649 72.5378 39.4718 71.7449C47.8883 69.8414 56.5915 67.8743 63.9823 63.7428C74.5407 57.8349 81.415 48.1333 88.0592 38.7528C91.8301 33.4002 95.748 27.8971 100.326 23.053C113.969 8.61766 136.032 0 159.351 0C178.937 0 196.992 5.90457 210.193 16.6265C215.952 21.31 221.046 26.8801 225.974 32.2728C235.322 42.4997 244.15 52.1611 257.337 56.6506C264.339 59.0359 272.017 59.6313 279.438 60.2101C283.069 60.4944 286.825 60.7855 290.479 61.2839C298.665 62.398 313.168 65.8872 318.357 76.7296C324.718 90.0274 311.663 105.56 295.475 111.726C288.838 114.251 281.704 115.867 274.799 117.413C265.817 119.443 256.526 121.544 248.404 125.672C233.396 133.313 223.916 146.919 214.745 160.08C212.335 163.539 209.843 167.105 207.294 170.517C200.653 179.406 182.689 200 159.211 200ZM159.332 1.04376C136.356 1.04376 114.621 9.52426 101.197 23.7287C96.6719 28.5193 92.7841 34.0091 89.0246 39.3149C82.3125 48.7923 75.3741 58.5943 64.5819 64.626C57.0402 68.8411 48.2503 70.8317 39.7433 72.7552C36.2515 73.5448 32.6428 74.361 29.1849 75.3212C20.6477 77.683 5.76788 83.4136 1.99703 95.2763C-2.90508 110.732 14.4408 125.626 33.2951 130.56C39.6641 132.233 46.4101 133.293 52.9337 134.324C65.0759 136.247 77.6328 138.234 88.195 144.156C99.187 150.321 107.287 160.28 115.119 169.915C126.028 183.33 136.33 196.009 153.555 198.558C155.424 198.836 157.316 198.976 159.211 198.976C182.127 198.976 199.79 178.703 206.321 169.985C208.859 166.6 211.347 163.027 213.753 159.574C222.999 146.307 232.558 132.584 247.823 124.816C256.07 120.618 265.436 118.5 274.498 116.453C281.357 114.9 288.45 113.298 295.004 110.802C310.679 104.834 323.368 89.8903 317.274 77.1578C312.123 66.389 296.686 63.2008 290.29 62.3277C286.674 61.8359 282.937 61.5449 279.325 61.2639C271.821 60.6784 264.064 60.0729 256.907 57.6375C243.426 53.0476 234.089 42.8309 225.058 32.9453C220.156 27.5927 215.088 22.036 209.394 17.4093C196.407 6.84796 178.628 1.0471 159.332 1.0471V1.04376Z" fill="#6A1AB7"/>
</svg>
