<svg width="500" height="330" viewBox="0 0 500 330" fill="none" xmlns="http://www.w3.org/2000/svg">
<path d="M248.655 329.348C245.608 329.346 242.567 329.109 239.562 328.639C211.975 324.323 195.704 303.221 178.475 280.882C166.366 265.186 153.846 248.95 137.01 238.998C120.845 229.443 101.453 226.204 82.6959 223.054C72.4796 221.35 61.9164 219.585 51.8941 216.825C21.6331 208.49 -6.10617 183.149 1.84704 156.753C7.9545 136.487 31.7789 126.783 45.4339 122.802C50.883 121.213 56.532 119.866 61.9987 118.563C75.1189 115.435 88.6858 112.202 100.207 105.412C116.666 95.7025 127.382 79.7582 137.739 64.3416C143.618 55.5447 149.725 46.5004 156.861 38.5392C178.129 14.8151 212.522 0.652176 248.873 0.652176C279.404 0.652176 307.549 10.3562 328.129 27.9775C337.105 35.6748 345.046 44.829 352.729 53.6919C367.301 70.4994 381.062 86.3778 401.618 93.7562C412.534 97.6763 424.502 98.655 436.07 99.6062C441.731 100.073 447.585 100.552 453.281 101.371C466.043 103.202 488.651 108.936 496.739 126.756C506.655 148.61 486.305 174.138 461.07 184.271C450.724 188.422 439.603 191.077 428.84 193.617C414.838 196.955 400.354 200.407 387.692 207.192C364.297 219.75 349.519 242.11 335.224 263.74C331.467 269.425 327.582 275.285 323.608 280.893C313.257 295.502 285.253 329.348 248.655 329.348ZM248.843 2.36757C213.027 2.36757 179.145 16.3051 158.219 39.6498C151.165 47.5231 145.105 56.5454 139.244 65.2653C128.781 80.8413 117.965 96.9506 101.142 106.864C89.3853 113.791 75.6832 117.062 62.422 120.224C56.9787 121.521 51.3533 122.863 45.963 124.441C32.6547 128.323 9.45932 137.741 3.58112 157.237C-4.06055 182.638 22.9792 207.115 52.3702 215.225C62.2985 217.974 72.8146 219.717 82.9839 221.41C101.912 224.571 121.486 227.837 137.951 237.569C155.086 247.702 167.712 264.069 179.921 279.904C196.927 301.951 212.986 322.789 239.838 326.978C242.752 327.434 245.701 327.664 248.655 327.665C284.377 327.665 311.911 294.347 322.092 280.019C326.048 274.455 329.927 268.583 333.678 262.909C348.091 241.104 362.992 218.551 386.787 205.785C399.643 198.885 414.244 195.404 428.37 192.039C439.062 189.488 450.119 186.855 460.335 182.753C484.771 172.945 504.551 148.385 495.052 127.459C487.022 109.761 462.957 104.521 452.987 103.086C447.35 102.278 441.525 101.8 435.894 101.338C424.196 100.376 412.105 99.3807 400.948 95.3781C379.933 87.8348 365.379 71.0438 351.3 54.797C343.659 46.0001 335.758 36.8678 326.882 29.264C306.638 11.9066 278.922 2.37307 248.843 2.37307V2.36757Z" fill="#6A1AB7"/>
</svg>
