<svg width="632" height="445" viewBox="0 0 632 445" fill="none" xmlns="http://www.w3.org/2000/svg">
<path d="M314.518 444.176C310.667 444.174 306.822 443.854 303.024 443.219C268.154 437.394 247.587 408.913 225.808 378.762C210.502 357.576 194.676 335.662 173.395 322.231C152.962 309.333 128.45 304.962 104.74 300.71C91.8259 298.41 78.4738 296.028 65.8052 292.302C27.5542 281.053 -7.50927 246.85 2.54388 211.223C10.2639 183.87 40.3788 170.772 57.6393 165.399C64.5272 163.255 71.6676 161.437 78.5778 159.678C95.1621 155.456 112.311 151.092 126.874 141.927C147.679 128.822 161.225 107.302 174.317 86.4942C181.747 74.6209 189.467 62.4137 198.487 51.6684C225.37 19.6476 268.845 0.531738 314.793 0.531738C353.386 0.531738 388.962 13.6294 414.976 37.413C426.322 47.8022 436.36 60.1578 446.071 72.1201C464.491 94.8055 481.885 116.237 507.869 126.195C521.667 131.486 536.795 132.807 551.417 134.091C558.573 134.722 565.973 135.368 573.173 136.473C589.304 138.944 617.881 146.684 628.105 170.735C640.64 200.233 614.917 234.687 583.018 248.364C569.941 253.967 555.883 257.551 542.278 260.979C524.579 265.484 506.271 270.144 490.266 279.301C460.694 296.25 442.014 326.431 423.944 355.624C419.196 363.297 414.285 371.208 409.262 378.777C396.177 398.494 360.779 444.176 314.518 444.176ZM314.756 2.84702C269.484 2.84702 226.656 21.6587 200.204 53.1674C191.287 63.794 183.627 75.9715 176.219 87.7409C162.993 108.764 149.321 130.507 128.056 143.887C113.195 153.237 95.8754 157.652 79.1128 161.919C72.2323 163.67 65.1216 165.481 58.308 167.611C41.4859 172.85 12.1661 185.562 4.73582 211.876C-4.92353 246.16 29.2557 279.197 66.407 290.143C78.9567 293.853 92.2495 296.206 105.104 298.491C129.029 302.758 153.772 307.166 174.584 320.301C196.243 333.978 212.204 356.069 227.636 377.441C249.132 407.199 269.432 435.324 303.373 440.978C307.056 441.594 310.784 441.904 314.518 441.906C359.672 441.906 394.475 396.936 407.345 377.597C412.345 370.087 417.249 362.162 421.99 354.504C440.209 325.073 459.044 294.633 489.122 277.402C505.372 268.088 523.829 263.391 541.684 258.85C555.199 255.406 569.176 251.852 582.09 246.316C612.977 233.077 637.98 199.928 625.973 171.685C615.823 147.797 585.404 140.725 572.802 138.788C565.676 137.698 558.313 137.052 551.195 136.429C536.408 135.13 521.124 133.787 507.022 128.385C480.458 118.203 462.061 95.5401 444.266 73.6117C434.606 61.7384 424.62 49.4124 413.4 39.1495C387.81 15.722 352.777 2.85445 314.756 2.85445V2.84702Z" fill="#6A1AB7"/>
</svg>
