<svg width="54" height="53" viewBox="0 0 54 53" fill="none" xmlns="http://www.w3.org/2000/svg">
<path d="M26.9723 52.9932C19.9947 52.9853 13.3052 50.2136 8.37136 45.286C3.43748 40.3584 0.662163 33.6774 0.654297 26.7087C0.662163 19.74 3.43748 13.0591 8.37136 8.13154C13.3052 3.20395 19.9947 0.432173 26.9723 0.424316C33.9498 0.432173 40.6394 3.20395 45.5732 8.13154C50.5071 13.0591 53.2824 19.74 53.2903 26.7087C53.2824 33.6774 50.5071 40.3584 45.5732 45.286C40.6394 50.2136 33.9498 52.9853 26.9723 52.9932ZM26.9723 2.70989C20.6004 2.71578 14.4911 5.24589 9.98478 9.74506C5.47847 14.2442 2.94326 20.3449 2.93539 26.7087C2.94326 33.0712 5.47745 39.1709 9.98215 43.6698C14.4868 48.1688 20.5943 50.6998 26.9649 50.7076C33.3355 50.6998 39.4429 48.1688 43.9476 43.6698C48.4523 39.1709 50.9865 33.0712 50.9943 26.7087C50.9865 20.3475 48.4533 14.2491 43.9502 9.75031C39.4471 5.25157 33.3416 2.71971 26.9723 2.70989Z" fill="#6A1AB7"/>
</svg>
